<?xml version="1.0" encoding="UTF-8" standalone="no"?>
<!-- Created with Inkscape (http://www.inkscape.org/) -->

<svg viewBox="0 0 210 297" version="1.1" id="svg5" xml:space="preserve">
    <g inkscape:label="Camada 1" inkscape:groupmode="layer" id="layer1">
        <path style="fill:#f6f6f6;stroke:none;stroke-width:0.352778;fill-opacity:1"
            d="M 521.01096,114.27908 V 160 h 699.91114 v -45.7197 c -7.2037,0.59327 -14.8484,4.59144 -21.8722,6.40913 -12.372,3.20192 -24.892,6.44063 -37.3945,9.03426 -20.7892,4.31235 -42.0335,6.06319 -63.1472,7.50499 -25.4213,1.73602 -51.6432,3.12208 -77.2584,1.37301 -31.11851,-2.12478 -62.36403,-5.21441 -93.13331,-11.00349 -25.93269,-4.87874 -51.24097,-11.95197 -76.90555,-18.10258 -30.95942,-7.41934 -62.65121,-12.443993 -94.19166,-15.984973 -58.92976,-6.61591 -119.12952,-3.48105 -177.46097,6.05057 -14.16897,2.315253 -28.52095,5.788313 -42.31957,9.769443 -5.39891,1.55766 -10.73739,3.77035 -16.22778,4.94842 z"
            id="path339" sodipodi:nodetypes="ccccscssccsssc" />
        <path style="fill:#000000;stroke-width:0.352778" id="path337" d="" />
    </g>
</svg>
